<svg width="266" height="70" viewBox="0 0 266 70" fill="none" xmlns="http://www.w3.org/2000/svg">
<path fill-rule="evenodd" clip-rule="evenodd" d="M107.317 37.7392C103.779 37.7392 100.897 34.8696 100.897 31.3479C100.897 30.6957 101.028 30.174 101.159 29.6522C101.945 32.3913 104.435 34.3479 107.448 34.3479C110.462 34.3479 112.952 32.3913 113.738 29.6522C113.869 30.174 114 30.8261 114 31.3479C113.738 34.8696 110.855 37.7392 107.317 37.7392ZM121.862 23.3913C121.862 19.8696 118.979 17 115.441 17C114.786 17 114.262 17.1305 113.738 17.2609C116.49 18.0435 118.455 20.5218 118.455 23.5218C118.455 26.5218 116.49 29 113.738 29.7827C114.262 29.9131 114.917 30.0435 115.441 30.0435C118.848 29.7827 121.862 26.9131 121.862 23.3913ZM107.317 8.91309C103.779 8.91309 100.897 11.7827 100.897 15.3044C100.897 15.9566 101.028 16.4783 101.159 17C101.945 14.2609 104.435 12.3044 107.448 12.3044C110.462 12.3044 112.952 14.2609 113.738 17C113.869 16.4783 114 15.8261 114 15.3044C113.738 11.7827 110.855 8.91309 107.317 8.91309ZM92.7725 23.3913C92.7725 19.8696 95.6552 17 99.1932 17C99.8483 17 100.372 17.1305 100.897 17.2609C98.1449 18.0435 96.1794 20.5218 96.1794 23.5218C96.1794 26.5218 98.1449 29 100.897 29.7827C100.372 29.9131 99.7173 30.0435 99.1932 30.0435C95.6552 29.7827 92.7725 26.9131 92.7725 23.3913Z" fill="#707070"/>
<path d="M35.6414 41.2609L33.8069 36.0435H26.469L24.6345 41.2609H22.2759L28.9586 22.8696H31.3173L38 41.2609H35.6414ZM30.1379 25.7392L27.2552 33.9566H33.1517L30.1379 25.7392Z" fill="#707070"/>
<path d="M44.1584 41.5218C43.5032 41.5218 42.3239 41.3913 41.6687 41.2609C41.2756 41.1305 41.0136 41.1305 40.3584 40.8696V21.4348H42.455V29.3913C43.1101 29.1305 43.3722 29 43.8963 28.8696C44.5515 28.7392 45.4687 28.6087 46.255 28.6087C49.3998 28.6087 51.3653 30.9566 51.3653 34.4783C51.3653 38.7826 48.6136 41.5218 44.1584 41.5218ZM45.5998 30.5652C44.4205 30.5652 43.5032 30.8261 42.586 31.4783V39.3044C43.1101 39.5652 43.6343 39.6957 44.4205 39.6957C44.8136 39.6957 45.0756 39.6957 45.4687 39.5652C46.1239 39.4348 46.9101 39.1739 47.4343 38.6522C48.7446 37.7392 49.2687 36.5652 49.2687 34.4783C49.1377 32 47.8274 30.5652 45.5998 30.5652Z" fill="#707070"/>
<path d="M58.4416 41.913C57.9175 43.4783 57.3933 44.3913 56.7382 45.5652C56.214 46.3478 55.952 46.8696 54.9037 48.1739L53.3313 46.8696C54.5106 45.5652 54.9037 44.913 55.6899 43.7391C56.3451 42.5652 56.7382 41.7826 57.3933 39.9565L52.8071 29H55.0347L58.0485 36.5652L58.4416 37.7391L58.7037 36.5652L61.1933 29H63.2899L58.4416 41.913Z" fill="#707070"/>
<path d="M69.8416 41.5217C69.3174 41.5217 68.7933 41.5217 68.1381 41.3913C66.9588 41.1304 66.4347 40.9999 65.2554 40.3478L66.0416 38.6521C66.4347 38.913 66.6967 39.0434 66.9588 39.1739C67.8761 39.5652 68.9243 39.826 69.8416 39.826C71.1519 39.826 72.0692 39.1739 72.0692 38.2608C72.0692 37.9999 71.9381 37.6086 71.8071 37.4782C71.283 36.826 70.7588 36.4347 68.5312 35.5217C66.1726 34.4782 65.2554 33.6956 65.2554 32.1304C65.2554 30.0434 67.0899 28.6086 69.9726 28.6086C70.4968 28.6086 71.0209 28.6086 71.545 28.7391C72.4623 28.8695 72.8554 29.1304 73.9037 29.6521L72.8554 31.3478C72.0692 30.826 71.6761 30.6956 71.0209 30.5652C70.4968 30.4347 70.1036 30.3043 69.5795 30.3043C68.1381 30.3043 67.3519 30.9565 67.3519 31.8695C67.3519 32.1304 67.483 32.3913 67.614 32.6521C68.1381 33.1739 68.4002 33.3043 70.6278 34.2173C73.2485 35.2608 74.0347 36.1739 74.0347 37.9999C74.1657 40.2173 72.4623 41.5217 69.8416 41.5217Z" fill="#707070"/>
<path d="M82.0276 41.5217C81.5035 41.5217 80.9793 41.5217 80.3242 41.3913C79.1449 41.1304 78.6207 40.9999 77.4414 40.3478L78.2276 38.6521C78.6207 38.913 78.8828 39.0434 79.1449 39.1739C80.0621 39.5652 81.1104 39.826 82.0276 39.826C83.338 39.826 84.2552 39.1739 84.2552 38.2608C84.2552 37.9999 84.1242 37.6086 83.9931 37.4782C83.469 36.826 82.9449 36.4347 80.7173 35.5217C78.3586 34.4782 77.4414 33.6956 77.4414 32.1304C77.4414 30.0434 79.2759 28.6086 82.1587 28.6086C82.6828 28.6086 83.2069 28.6086 83.7311 28.7391C84.6483 28.8695 85.0414 29.1304 86.0897 29.6521L85.0414 31.3478C84.2552 30.826 83.8621 30.6956 83.338 30.5652C82.8138 30.4347 82.4207 30.3043 81.8966 30.3043C80.4552 30.3043 79.669 30.9565 79.669 31.8695C79.669 32.1304 79.8 32.3913 79.9311 32.6521C80.4552 33.1739 80.7173 33.3043 82.9449 34.2173C85.5655 35.2608 86.3518 36.1739 86.3518 37.9999C86.2207 40.2173 84.6483 41.5217 82.0276 41.5217Z" fill="#707070"/>
<path d="M142.566 41.2609V33.0435H131.952V41.2609H129.724V23.3914H131.952V31.087H142.566V23.3914H144.793V41.2609H142.566Z" fill="#707070"/>
<path d="M158.945 41.5218C157.241 41.3914 156.717 41.0001 156.586 39.8262C155.931 40.3479 155.669 40.6088 155.276 40.7392C154.49 41.1305 153.572 41.3914 152.655 41.3914C150.69 41.3914 149.379 40.087 149.379 38.1305C149.379 36.3044 150.297 35.1305 152.131 34.7392L156.455 33.6957V31.4783C156.455 30.4349 155.669 29.9131 154.097 29.9131C152.786 29.9131 152.262 30.3044 152.262 30.9566C152.262 31.087 152.262 31.2175 152.393 31.4783L150.297 31.8696C150.166 31.6088 150.035 31.3479 150.035 31.087C150.035 29.5218 151.869 28.3479 154.49 28.3479C156.979 28.3479 158.552 29.5218 158.552 31.3479V38.0001V38.9131C158.552 39.174 158.945 39.4349 159.6 39.5653L158.945 41.5218ZM156.324 35.6522L151.738 36.8262C151.476 37.3479 151.345 37.6088 151.345 38.1305C151.345 39.0436 152 39.6957 153.048 39.6957C153.966 39.6957 154.621 39.4349 156.324 38.1305V35.6522Z" fill="#707070"/>
<path d="M166.676 41.5218C166.021 41.5218 164.841 41.3913 164.186 41.2609C163.793 41.1305 163.531 41.1305 162.876 40.8696V21.4348H164.973V29.3913C165.628 29.1305 165.89 29 166.414 28.8696C167.069 28.7392 167.986 28.6087 168.773 28.6087C171.917 28.6087 173.883 30.9566 173.883 34.4783C173.883 38.7826 171.131 41.5218 166.676 41.5218ZM168.117 30.5652C166.938 30.5652 166.021 30.8261 165.104 31.4783V39.3044C165.628 39.5652 166.152 39.6957 166.938 39.6957C167.331 39.6957 167.593 39.6957 167.986 39.5652C168.641 39.4348 169.428 39.1739 169.952 38.6522C171.262 37.7392 171.786 36.5652 171.786 34.4783C171.655 32 170.345 30.5652 168.117 30.5652Z" fill="#707070"/>
<path d="M178.469 26.0001C177.683 26.0001 177.159 25.3479 177.159 24.6957C177.159 23.9131 177.814 23.3914 178.469 23.3914C179.255 23.3914 179.779 24.0435 179.779 24.6957C179.779 25.3479 179.255 26.0001 178.469 26.0001ZM177.421 41.2609V29.0001H179.517V41.2609H177.421Z" fill="#707070"/>
<path d="M192.228 41.2608V39.6956C191.179 40.8695 189.738 41.6521 188.166 41.6521C185.152 41.6521 183.055 39.1739 183.055 35.5217C183.055 31.6087 185.676 28.7391 189.345 28.7391C190.655 28.7391 191.441 29 192.228 29.5217V21.5652H194.324V41.2608H192.228ZM192.228 33.1739C192.228 32.2608 192.228 32 191.966 31.6087C191.572 30.9565 190.786 30.5652 189.476 30.5652C186.855 30.5652 185.152 32.3913 185.152 35.3913C185.152 37.8695 186.593 39.6956 188.428 39.6956C189.214 39.6956 190 39.4348 190.786 38.913C191.31 38.5217 191.572 38.2608 192.097 37.6087V33.1739H192.228Z" fill="#707070"/>
<path d="M199.828 34.8696C199.828 37.8696 201.4 39.6957 203.89 39.6957C204.938 39.6957 205.724 39.4348 207.035 38.5218L207.821 40.087C205.986 41.2609 204.938 41.5217 203.366 41.5217C199.959 41.5217 197.6 38.9131 197.6 35C197.6 31.087 199.959 28.4783 203.366 28.4783C206.248 28.4783 208.083 30.5652 208.083 33.5652V34.7391H199.828V34.8696ZM203.366 30.4348C201.662 30.4348 200.483 31.4783 199.959 33.3044H205.986C205.986 31.4783 205.069 30.4348 203.366 30.4348Z" fill="#707070"/>
<path d="M220.138 40.7391C219.09 41.2609 217.91 41.5217 216.731 41.5217C212.931 41.5217 210.441 38.9131 210.441 35.1304C210.441 31.2174 213.062 28.4783 216.862 28.4783C217.517 28.4783 218.041 28.6087 218.697 28.7391C219.483 29 219.876 29.1304 220.793 29.7826L219.614 31.4783C218.697 30.6957 217.91 30.4348 216.862 30.4348C214.372 30.4348 212.669 32.3913 212.669 35.1304C212.669 38 214.372 39.6957 216.993 39.6957C218.172 39.6957 218.959 39.4348 220.007 38.6522L221.055 40.2174C220.662 40.4783 220.4 40.6087 220.138 40.7391Z" fill="#707070"/>
<path d="M228.655 41.5217C225.248 41.5217 222.497 38.5217 222.497 35C222.497 31.4783 225.248 28.4783 228.655 28.4783C231.931 28.4783 234.683 31.3478 234.683 35C234.683 38.6522 231.931 41.5217 228.655 41.5217ZM228.655 30.4348C226.428 30.4348 224.855 32.5217 224.855 35.1304C224.855 37.7391 226.559 39.8261 228.655 39.8261C230.752 39.8261 232.455 37.7391 232.455 35.1304C232.455 32.5217 230.752 30.4348 228.655 30.4348Z" fill="#707070"/>
<path d="M243.986 31.2173C243.593 30.826 243.331 30.6956 243.069 30.6956C242.283 30.6956 241.366 31.8695 240.186 33.9565V41.2608H238.09V28.9999H240.186V31.2173C241.759 29.2608 242.414 28.6086 243.462 28.6086C243.986 28.6086 244.511 28.8695 245.035 29.3913L243.986 31.2173Z" fill="#707070"/>
<path d="M24.3725 53.9129V55.739H26.2069V56.2607H24.3725V58.4781H23.7173V53.2607H26.6V53.7825H24.3725V53.9129Z" fill="#707070"/>
<path d="M30.793 58.4781V53.2607H31.4481V58.4781H30.793Z" fill="#707070"/>
<path d="M39.7035 58.4781L37.0828 54.4347C37.0828 54.4347 37.0828 54.3042 36.9517 54.3042V54.1738C36.9517 54.1738 36.9517 54.0433 36.8207 54.0433V58.4781H36.1655V53.2607H36.9517L39.5724 57.1738C39.5724 57.1738 39.5724 57.3042 39.7035 57.3042C39.7035 57.4347 39.7035 57.4347 39.8345 57.5651C39.8345 57.5651 39.8345 57.5651 39.8345 57.6955V53.2607H40.4897V58.4781H39.7035Z" fill="#707070"/>
<path d="M45.0757 58.4781V53.2607H47.9584V53.7825H45.7309V55.4781H47.5653V55.9999H45.7309V57.826H48.0895V58.4781H45.0757Z" fill="#707070"/>
<path d="M55.0343 54.174C54.7722 54.0435 54.6412 53.9131 54.5102 53.9131C54.3791 53.9131 53.986 53.7827 53.855 53.7827C53.1998 53.7827 52.8067 54.0435 52.8067 54.5653C52.8067 54.9566 53.0688 55.087 54.1171 55.7392C54.5102 55.8696 54.7722 56.1305 54.9033 56.2609C55.1653 56.5218 55.2964 56.7827 55.2964 57.174C55.2964 58.087 54.6412 58.6087 53.5929 58.6087C53.1998 58.6087 52.9377 58.6088 52.6757 58.4783C52.4136 58.3479 52.2826 58.3479 52.0205 58.087L52.4136 57.5653C52.6757 57.8261 52.8067 57.8261 53.0688 57.9566C53.3309 58.087 53.5929 58.087 53.855 58.087C54.5102 58.087 54.9033 57.8261 54.9033 57.3044C54.9033 57.174 54.9033 57.0435 54.7722 56.9131C54.6412 56.7827 54.5102 56.6522 54.3791 56.5218C54.2481 56.5218 53.986 56.3914 53.4619 56.0001C52.6757 55.6087 52.4136 55.2174 52.4136 54.6957C52.4136 53.9131 53.0688 53.3914 54.1171 53.3914C54.3791 53.3914 54.7722 53.3914 55.0343 53.5218C55.2964 53.6522 55.4274 53.6522 55.6895 53.7827L55.0343 54.174Z" fill="#707070"/>
<path d="M61.1931 53.9131V58.4783H60.5379V53.9131H58.8345V53.3914H62.8965V53.9131H61.1931Z" fill="#707070"/>
<path d="M73.3791 53.9131V58.4783H72.724V53.9131H71.0205V53.3914H75.0826V53.9131H73.3791Z" fill="#707070"/>
<path d="M81.1104 58.6086C79.538 58.6086 78.4897 57.4347 78.4897 55.8695C78.4897 54.3043 79.538 53.1304 81.1104 53.1304C82.6828 53.1304 83.7311 54.3043 83.7311 55.8695C83.7311 57.4347 82.6828 58.6086 81.1104 58.6086ZM81.1104 53.7825C80.0622 53.7825 79.1449 54.6956 79.1449 55.8695C79.1449 57.0434 80.0622 57.9565 81.1104 57.9565C82.1587 57.9565 82.9449 57.0434 82.9449 55.8695C83.076 54.6956 82.1587 53.7825 81.1104 53.7825Z" fill="#707070"/>
<path d="M91.8554 58.6087H91.4623L90.5451 56.1305L89.6278 58.6087H89.2347L87.1382 53.3914H87.7934L89.3658 57.6957L90.152 55.6087L89.3658 53.5218H89.8899L90.414 54.8261L90.9382 53.5218H91.4623L90.6761 55.6087L91.4623 57.8261L93.0347 53.5218H93.6899L91.8554 58.6087Z" fill="#707070"/>
<path d="M97.752 58.4781V53.2607H100.635V53.7825H98.4071V55.4781H100.242V55.9999H98.4071V57.826H100.766V58.4781H97.752Z" fill="#707070"/>
<path d="M105.09 58.4781V53.2607H105.745V57.826H108.104V58.4781H105.09Z" fill="#707070"/>
<path d="M114.524 54.174C114.262 54.0435 114.131 53.9131 114 53.9131C113.869 53.9131 113.476 53.7827 113.345 53.7827C112.69 53.7827 112.296 54.0435 112.296 54.5653C112.296 54.9566 112.559 55.087 113.607 55.7392C114 55.8696 114.262 56.1305 114.393 56.2609C114.655 56.5218 114.786 56.7827 114.786 57.174C114.786 58.087 114.131 58.6087 113.083 58.6087C112.69 58.6087 112.427 58.6088 112.165 58.4783C111.903 58.3479 111.772 58.3479 111.51 58.087L111.903 57.5653C112.165 57.8261 112.296 57.8261 112.559 57.9566C112.821 58.087 113.083 58.087 113.345 58.087C114 58.087 114.393 57.8261 114.393 57.3044C114.393 57.174 114.393 57.0435 114.262 56.9131C114.131 56.7827 114 56.6522 113.869 56.5218C113.738 56.5218 113.476 56.3914 112.952 56.0001C112.165 55.6087 111.903 55.2174 111.903 54.6957C111.903 53.9131 112.559 53.3914 113.607 53.3914C113.869 53.3914 114.262 53.3914 114.524 53.5218C114.786 53.6522 114.917 53.6522 115.179 53.7827L114.524 54.174Z" fill="#707070"/>
<path d="M128.414 58.2173C128.152 58.4782 127.89 58.6086 127.628 58.6086C127.497 58.6086 127.366 58.6086 127.235 58.4782C126.973 58.3478 126.841 58.2173 126.579 57.9565C126.055 58.3478 125.662 58.6086 125.007 58.6086C124.09 58.6086 123.435 58.0869 123.435 57.1739C123.435 56.6521 123.697 56.2608 124.352 55.6086L124.745 55.3478C124.614 55.2173 124.483 55.0869 124.483 54.9565C124.221 54.5652 124.09 54.3043 124.09 53.913C124.09 53.1304 124.745 52.6086 125.662 52.6086C126.448 52.6086 127.104 52.9999 127.104 53.7826C127.104 54.1739 126.841 54.5652 126.448 54.826L126.055 55.0869L125.793 54.6956L126.055 54.4347C126.317 54.1739 126.448 54.0434 126.448 53.7826C126.448 53.3913 126.055 53.1304 125.662 53.1304C125.138 53.1304 124.745 53.3913 124.745 53.913C124.745 54.0434 124.745 54.0434 124.745 54.1739C124.745 54.4347 124.876 54.5652 125.269 54.9565L126.841 57.0434C127.104 56.7826 127.235 56.6521 127.235 56.3913C127.366 56.1304 127.366 55.9999 127.366 55.6086H127.759C127.759 56.1304 127.628 56.2608 127.628 56.5217C127.497 56.7826 127.366 57.0434 126.973 57.4347C127.235 57.826 127.497 57.9565 127.759 57.9565C128.021 57.9565 128.152 57.826 128.545 57.3043L128.938 57.5652C128.676 57.9565 128.545 58.0869 128.414 58.2173ZM125.007 55.8695L124.614 56.1304C124.221 56.5217 123.959 56.7826 123.959 57.1739C123.959 57.6956 124.352 58.0869 125.007 58.0869C125.269 58.0869 125.4 58.0869 125.531 57.9565C125.662 57.826 125.793 57.826 126.055 57.5652L125.007 55.8695Z" fill="#707070"/>
<path d="M140.338 58.4781L138.897 56.2607H138.242V58.4781H137.586V53.2607H139.159C139.814 53.2607 140.076 53.3912 140.338 53.652C140.6 53.9129 140.731 54.3042 140.731 54.6955C140.731 55.0868 140.6 55.4781 140.338 55.739C140.076 55.9999 139.945 55.9999 139.552 56.1303L141.124 58.4781H140.338ZM139.814 54.0433C139.683 53.9129 139.552 53.9129 139.028 53.9129H138.242V55.739H139.028C139.683 55.739 140.076 55.3477 140.076 54.6955C140.076 54.4347 140.076 54.1738 139.814 54.0433Z" fill="#707070"/>
<path d="M148.462 58.2174C148.069 58.4783 147.545 58.7392 147.021 58.7392C146.497 58.7392 145.973 58.6087 145.579 58.2174C145.186 57.8261 144.924 57.4348 144.924 56.7827V53.3914H145.579V56.6522C145.579 57.3044 145.579 57.4348 145.842 57.6957C146.104 57.9566 146.497 58.087 146.89 58.087C147.283 58.087 147.676 57.9566 147.938 57.6957C148.2 57.4348 148.2 57.3044 148.2 56.6522V53.3914H148.855V56.7827C149.117 57.4348 148.986 57.8261 148.462 58.2174Z" fill="#707070"/>
<path d="M157.241 58.4781C156.848 58.6086 156.324 58.6086 155.931 58.6086C154.359 58.6086 153.179 57.4347 153.179 55.8694C153.179 54.3042 154.359 53.2607 155.931 53.2607C156.324 53.2607 156.717 53.2607 156.979 53.3912C157.241 53.3912 157.372 53.5216 157.634 53.652L157.372 54.1738C157.241 54.0434 157.11 54.0433 157.11 54.0433C156.848 53.9129 156.455 53.7825 155.931 53.7825C155.145 53.7825 154.752 54.0434 154.359 54.4347C154.096 54.826 153.834 55.3477 153.834 55.8694C153.834 57.1738 154.752 58.0868 156.062 58.0868C156.324 58.0868 156.455 58.0868 156.979 57.9564V56.2607H157.634V58.3477C157.503 58.3477 157.372 58.3477 157.241 58.4781Z" fill="#707070"/>
<path d="M164.841 54.174C164.579 54.0435 164.448 53.9131 164.317 53.9131C164.186 53.9131 163.793 53.7827 163.662 53.7827C163.007 53.7827 162.614 54.0435 162.614 54.5653C162.614 54.9566 162.876 55.087 163.924 55.7392C164.317 55.8696 164.579 56.1305 164.71 56.2609C164.972 56.5218 165.103 56.7827 165.103 57.174C165.103 58.087 164.448 58.6087 163.4 58.6087C163.007 58.6087 162.745 58.6088 162.483 58.4783C162.221 58.3479 162.09 58.3479 161.828 58.087L162.221 57.5653C162.483 57.8261 162.614 57.8261 162.876 57.9566C163.138 58.087 163.4 58.087 163.662 58.087C164.317 58.087 164.71 57.8261 164.71 57.3044C164.71 57.174 164.71 57.0435 164.579 56.9131C164.448 56.7827 164.317 56.6522 164.186 56.5218C164.055 56.5218 163.793 56.3914 163.269 56.0001C162.483 55.6087 162.221 55.2174 162.221 54.6957C162.221 53.9131 162.876 53.3914 163.924 53.3914C164.186 53.3914 164.579 53.3914 164.841 53.5218C165.104 53.6522 165.235 53.6522 165.497 53.7827L164.841 54.174Z" fill="#707070"/>
<path d="M174.931 57.3043C174.538 57.3043 174.276 57.0435 174.276 56.6522C174.276 56.2609 174.538 56 174.931 56C175.324 56 175.586 56.2609 175.586 56.6522C175.586 57.0435 175.324 57.3043 174.931 57.3043Z" fill="#707070"/>
<path d="M186.462 56.652C186.2 56.652 186.069 56.652 185.676 56.652V58.4781H185.021V53.2607H186.593C187.248 53.2607 187.51 53.3912 187.903 53.652C188.165 53.9129 188.296 54.3042 188.296 54.826C188.296 55.9999 187.641 56.652 186.462 56.652ZM187.379 54.0433C187.248 53.9129 186.986 53.7825 186.593 53.7825H185.676V55.8694C186.069 55.8694 186.2 55.8694 186.331 55.8694C186.593 55.8694 186.855 55.8694 186.986 55.739C187.379 55.6086 187.641 55.2173 187.641 54.6955C187.641 54.5651 187.641 54.3042 187.379 54.0433Z" fill="#707070"/>
<path d="M194.586 58.6086C193.014 58.6086 191.965 57.4347 191.965 55.8695C191.965 54.3043 193.014 53.1304 194.586 53.1304C196.158 53.1304 197.207 54.3043 197.207 55.8695C197.207 57.4347 196.158 58.6086 194.586 58.6086ZM194.586 53.7825C193.538 53.7825 192.621 54.6956 192.621 55.8695C192.621 57.0434 193.538 57.9565 194.586 57.9565C195.634 57.9565 196.42 57.0434 196.42 55.8695C196.42 54.6956 195.634 53.7825 194.586 53.7825Z" fill="#707070"/>
<path d="M204.152 58.4781L202.71 56.2607H202.055V58.4781H201.4V53.2607H202.972C203.627 53.2607 203.89 53.3912 204.152 53.652C204.414 53.9129 204.545 54.3042 204.545 54.6955C204.545 55.0868 204.414 55.4781 204.152 55.739C203.89 55.9999 203.759 55.9999 203.365 56.1303L204.938 58.4781H204.152ZM203.627 54.0433C203.496 53.9129 203.365 53.9129 202.841 53.9129H202.055V55.739H202.841C203.496 55.739 203.89 55.3477 203.89 54.6955C204.021 54.4347 203.89 54.1738 203.627 54.0433Z" fill="#707070"/>
<path d="M210.572 53.9131V58.4783H209.917V53.9131H208.214V53.3914H212.276V53.9131H210.572Z" fill="#707070"/>
<path d="M219.614 58.2174C219.221 58.4783 218.696 58.7392 218.172 58.7392C217.648 58.7392 217.124 58.6087 216.731 58.2174C216.338 57.8261 216.076 57.4348 216.076 56.7827V53.3914H216.731V56.6522C216.731 57.3044 216.731 57.4348 216.993 57.6957C217.255 57.9566 217.648 58.087 218.041 58.087C218.434 58.087 218.827 57.9566 219.089 57.6957C219.352 57.4348 219.352 57.3044 219.352 56.6522V53.3914H220.007V56.7827C220.138 57.4348 220.007 57.8261 219.614 58.2174Z" fill="#707070"/>
<path d="M228.393 58.4781C228 58.6086 227.476 58.6086 227.083 58.6086C225.51 58.6086 224.331 57.4347 224.331 55.8694C224.331 54.3042 225.51 53.2607 227.083 53.2607C227.476 53.2607 227.869 53.2607 228.131 53.3912C228.393 53.3912 228.524 53.5216 228.786 53.652L228.524 54.1738C228.393 54.0434 228.262 54.0433 228.262 54.0433C228 53.9129 227.607 53.7825 227.083 53.7825C226.297 53.7825 225.903 54.0434 225.51 54.4347C225.248 54.826 224.986 55.3477 224.986 55.8694C224.986 57.1738 225.903 58.0868 227.214 58.0868C227.476 58.0868 227.607 58.0868 228.131 57.9564V56.2607H228.786V58.3477C228.655 58.3477 228.524 58.3477 228.393 58.4781Z" fill="#707070"/>
<path d="M236.386 58.4782L235.862 56.913H233.766L233.242 58.4782H232.586L234.552 53.1304H235.207L237.173 58.4782H236.386ZM234.814 54.0434L234.028 56.3912H235.731L234.814 54.0434Z" fill="#707070"/>
<path d="M241.104 58.4781V53.2607H241.759V57.826H244.117V58.4781H241.104Z" fill="#707070"/>
</svg>
